<svg width="100" height="31" viewBox="0 0 100 31" fill="none" xmlns="http://www.w3.org/2000/svg">
<g clip-path="url(#clip0_1_1080)">
<path d="M16.4184 22.9665C20.2018 22.9665 23.3358 19.8391 23.3358 16.049C23.3358 12.2655 20.2018 9.13159 16.4117 9.13159C12.6282 9.13159 9.50098 12.2655 9.50098 16.049C9.50098 19.8391 12.6349 22.9665 16.4184 22.9665ZM12.3871 11.8369C13.0568 11.2008 13.867 10.7119 14.7711 10.4441C14.2956 10.9195 13.8938 11.5892 13.5925 12.4061C13.1237 12.2588 12.722 12.0646 12.3871 11.8369ZM18.0724 10.4508C18.9697 10.7186 19.78 11.2008 20.443 11.8369C20.1149 12.0713 19.713 12.2588 19.2443 12.4128C18.9429 11.5892 18.5412 10.9195 18.0724 10.4508ZM16.8871 10.6651C17.4429 10.9329 17.9519 11.6561 18.3135 12.6405C17.8715 12.7209 17.3961 12.7678 16.8871 12.7878V10.6651ZM14.5233 12.6405C14.8916 11.6561 15.3938 10.9329 15.9496 10.6651V12.7878C15.4407 12.7678 14.9653 12.7209 14.5233 12.6405ZM10.5925 15.5803C10.6862 14.4419 11.1148 13.3905 11.7711 12.5267C12.1795 12.828 12.7086 13.0892 13.3246 13.2834C13.1505 13.9798 13.0367 14.7566 13.0032 15.5803H10.5925ZM19.8336 15.5803C19.8001 14.7566 19.6862 13.9798 19.5121 13.2834C20.1282 13.0892 20.6573 12.8347 21.059 12.5267C21.7219 13.3905 22.1505 14.4419 22.2443 15.5803H19.8336ZM13.9608 15.5803C13.9943 14.8503 14.0947 14.1539 14.2487 13.5245C14.7845 13.6316 15.3537 13.6986 15.9496 13.7253V15.5803H13.9608ZM16.8871 15.5803V13.7253C17.4831 13.6986 18.0523 13.6316 18.588 13.5245C18.7421 14.1539 18.8425 14.8503 18.876 15.5803H16.8871ZM10.5925 16.5178H13.0032C13.0367 17.3548 13.1505 18.1383 13.3246 18.8414C12.7153 19.0356 12.1929 19.2901 11.7912 19.5914C11.1215 18.7209 10.6862 17.6628 10.5925 16.5178ZM13.9608 16.5178H15.9496V18.4061C15.3603 18.4329 14.7845 18.4999 14.2554 18.6003C14.0947 17.9642 13.9876 17.2544 13.9608 16.5178ZM16.8871 18.4061V16.5178H18.876C18.8492 17.2544 18.7421 17.9642 18.5813 18.6003C18.0523 18.4999 17.4831 18.4329 16.8871 18.4061ZM19.5121 18.8414C19.6929 18.1383 19.8001 17.3548 19.8336 16.5178H22.2443C22.1505 17.6628 21.7153 18.7209 21.0456 19.5914C20.6439 19.2901 20.1215 19.0356 19.5121 18.8414ZM16.8871 19.3436C17.3894 19.3637 17.8648 19.4106 18.3001 19.491C17.9385 20.4553 17.4362 21.1718 16.8871 21.433V19.3436ZM14.5367 19.491C14.972 19.4106 15.4474 19.3637 15.9496 19.3436V21.433C15.4005 21.1718 14.8983 20.4553 14.5367 19.491ZM12.4072 20.2812C12.7354 20.0534 13.1371 19.866 13.5992 19.7186C13.9005 20.5222 14.2956 21.1785 14.7577 21.6473C13.8737 21.3794 13.0702 20.9039 12.4072 20.2812ZM19.2376 19.7186C19.6996 19.866 20.1015 20.0534 20.4296 20.2812C19.7666 20.9039 18.963 21.3794 18.0791 21.6473C18.5412 21.1785 18.9362 20.5222 19.2376 19.7186Z" fill="#040404"/>
</g>
<path d="M30.1662 20.8125V10.6307H37.027V12.4055H32.3189V14.8317H36.674V16.6065H32.3189V19.0376H37.0469V20.8125H30.1662ZM40.8257 16.3977V20.8125H38.7078V13.1761H40.7263V14.5234H40.8157C40.9848 14.0793 41.2682 13.728 41.6659 13.4695C42.0636 13.2076 42.5459 13.0767 43.1126 13.0767C43.6429 13.0767 44.1053 13.1927 44.4997 13.4247C44.8941 13.6567 45.2007 13.9882 45.4194 14.419C45.6382 14.8466 45.7476 15.357 45.7476 15.9503V20.8125H43.6297V16.3281C43.633 15.8608 43.5137 15.4962 43.2717 15.2344C43.0298 14.9692 42.6967 14.8366 42.2724 14.8366C41.9874 14.8366 41.7355 14.898 41.5167 15.0206C41.3013 15.1432 41.1323 15.3222 41.0096 15.5575C40.8903 15.7895 40.829 16.0696 40.8257 16.3977ZM50.8662 23.8352C50.1801 23.8352 49.5918 23.7408 49.1013 23.5518C48.6141 23.3662 48.2263 23.1127 47.9379 22.7912C47.6496 22.4697 47.4623 22.1084 47.3762 21.7074L49.335 21.4439C49.3946 21.5964 49.4891 21.7389 49.6183 21.8714C49.7476 22.004 49.9183 22.1101 50.1304 22.1896C50.3459 22.2725 50.6077 22.3139 50.9159 22.3139C51.3766 22.3139 51.7561 22.2012 52.0544 21.9759C52.356 21.7538 52.5068 21.3809 52.5068 20.8572V19.4602H52.4173C52.3245 19.6723 52.1853 19.8729 51.9997 20.0618C51.8141 20.2507 51.5755 20.4048 51.2838 20.5241C50.9922 20.6435 50.6441 20.7031 50.2398 20.7031C49.6664 20.7031 49.1444 20.5705 48.6737 20.3054C48.2064 20.0369 47.8335 19.6276 47.5551 19.0774C47.28 18.5239 47.1425 17.8246 47.1425 16.9794C47.1425 16.1143 47.2834 15.3918 47.5651 14.8118C47.8468 14.2318 48.2213 13.7976 48.6887 13.5092C49.1593 13.2209 49.6747 13.0767 50.2348 13.0767C50.6624 13.0767 51.0203 13.1496 51.3087 13.2955C51.597 13.438 51.829 13.617 52.0047 13.8324C52.1837 14.0445 52.3212 14.2533 52.4173 14.4588H52.4969V13.1761H54.5999V20.8871C54.5999 21.5367 54.4408 22.0803 54.1226 22.5178C53.8044 22.9553 53.3636 23.2834 52.8002 23.5021C52.24 23.7242 51.5954 23.8352 50.8662 23.8352ZM50.911 19.1122C51.2523 19.1122 51.5407 19.0277 51.776 18.8587C52.0146 18.6863 52.1969 18.4411 52.3229 18.1229C52.4521 17.8014 52.5168 17.4169 52.5168 16.9695C52.5168 16.522 52.4538 16.1342 52.3279 15.8061C52.2019 15.4747 52.0196 15.2178 51.781 15.0355C51.5423 14.8532 51.2523 14.7621 50.911 14.7621C50.5629 14.7621 50.2696 14.8565 50.031 15.0455C49.7923 15.2311 49.6117 15.4896 49.4891 15.821C49.3664 16.1525 49.3051 16.5353 49.3051 16.9695C49.3051 17.4103 49.3664 17.7914 49.4891 18.1129C49.615 18.4311 49.7957 18.678 50.031 18.8537C50.2696 19.026 50.5629 19.1122 50.911 19.1122ZM58.4122 10.6307V20.8125H56.2943V10.6307H58.4122ZM60.1179 20.8125V13.1761H62.2358V20.8125H60.1179ZM61.1818 12.1918C60.867 12.1918 60.5968 12.0874 60.3714 11.8786C60.1494 11.6664 60.0384 11.4129 60.0384 11.1179C60.0384 10.8262 60.1494 10.576 60.3714 10.3672C60.5968 10.1551 60.867 10.049 61.1818 10.049C61.4967 10.049 61.7652 10.1551 61.9872 10.3672C62.2126 10.576 62.3253 10.8262 62.3253 11.1179C62.3253 11.4129 62.2126 11.6664 61.9872 11.8786C61.7652 12.0874 61.4967 12.1918 61.1818 12.1918ZM70.2951 15.3537L68.3562 15.473C68.3231 15.3073 68.2518 15.1581 68.1424 15.0256C68.0331 14.8897 67.8889 14.782 67.7099 14.7024C67.5343 14.6196 67.3238 14.5781 67.0785 14.5781C66.7504 14.5781 66.4737 14.6477 66.2483 14.7869C66.0229 14.9228 65.9102 15.1051 65.9102 15.3338C65.9102 15.5161 65.9831 15.6702 66.129 15.7962C66.2748 15.9221 66.525 16.0232 66.8797 16.0994L68.2618 16.3778C69.0042 16.5303 69.5577 16.7756 69.9223 17.1136C70.2869 17.4517 70.4692 17.8958 70.4692 18.446C70.4692 18.9465 70.3217 19.3857 70.0267 19.7635C69.735 20.1413 69.334 20.4363 68.8236 20.6484C68.3165 20.8572 67.7315 20.9616 67.0686 20.9616C66.0577 20.9616 65.2523 20.7512 64.6524 20.3303C64.0558 19.906 63.7061 19.3293 63.6034 18.6001L65.6865 18.4908C65.7495 18.799 65.9019 19.0343 66.1439 19.1967C66.3858 19.3558 66.6957 19.4354 67.0736 19.4354C67.4448 19.4354 67.7431 19.3641 67.9684 19.2216C68.1971 19.0758 68.3131 18.8885 68.3165 18.6598C68.3131 18.4676 68.2319 18.3101 68.0728 18.1875C67.9138 18.0616 67.6685 17.9654 67.3371 17.8991L66.0146 17.6357C65.2689 17.4865 64.7137 17.228 64.3491 16.8601C63.9879 16.4922 63.8072 16.0232 63.8072 15.4531C63.8072 14.9626 63.9398 14.54 64.2049 14.1854C64.4734 13.8307 64.8496 13.5573 65.3335 13.3651C65.8207 13.1728 66.3908 13.0767 67.0437 13.0767C68.0082 13.0767 68.7672 13.2805 69.3207 13.6882C69.8775 14.0959 70.2023 14.651 70.2951 15.3537ZM73.9298 16.3977V20.8125H71.8119V10.6307H73.8701V14.5234H73.9596C74.132 14.0727 74.4104 13.7197 74.7948 13.4645C75.1793 13.206 75.6615 13.0767 76.2416 13.0767C76.7719 13.0767 77.2342 13.1927 77.6286 13.4247C78.0264 13.6534 78.3346 13.9832 78.5534 14.4141C78.7754 14.8416 78.8848 15.3537 78.8815 15.9503V20.8125H76.7636V16.3281C76.7669 15.8575 76.6476 15.4912 76.4056 15.2294C76.167 14.9676 75.8322 14.8366 75.4014 14.8366C75.113 14.8366 74.8578 14.898 74.6357 15.0206C74.417 15.1432 74.2446 15.3222 74.1187 15.5575C73.9961 15.7895 73.9331 16.0696 73.9298 16.3977Z" fill="#040404"/>
<g clip-path="url(#clip1_1_1080)">
<path d="M84.1406 15.3125L87.1406 18.3125L90.1406 15.3125" stroke="#040404" stroke-width="1.5"/>
</g>
<defs>
<clipPath id="clip0_1_1080">
<rect width="16" height="16" fill="white" transform="translate(8.28125 8.3125)"/>
</clipPath>
<clipPath id="clip1_1_1080">
<rect width="8" height="6" fill="white" transform="translate(83.1406 14.3125)"/>
</clipPath>
</defs>
</svg>
