<svg width="78" height="30" viewBox="0 0 78 30" fill="none" xmlns="http://www.w3.org/2000/svg">
<path fill-rule="evenodd" clip-rule="evenodd" d="M2.78556 1.38313L17.5409 0.294025C18.4373 0.217129 19.1832 0.182799 19.8782 0.340662C20.6155 0.508149 21.1832 0.863737 21.7851 1.30149L26.4971 4.62095L26.507 4.6282C26.5449 4.65603 26.5844 4.68475 26.6251 4.71434C26.9202 4.92881 27.2768 5.18795 27.5237 5.4745C27.9233 5.93828 28.0534 6.44486 28.0534 6.98368V25.1815C28.0534 25.8677 27.9357 26.6927 27.354 27.3547C26.7615 28.0289 25.9118 28.2836 25.0284 28.3465L25.0218 28.347L7.87262 29.3849L7.86471 29.3854C7.2786 29.4134 6.67182 29.3992 6.09362 29.1878C5.47244 28.9605 5.02403 28.5604 4.64614 28.0786L4.64243 28.0739L1.16537 23.5522L1.16052 23.5457C0.452158 22.5994 0.03125 21.7182 0.03125 20.6185V4.44304C0.03125 3.81023 0.169845 3.0748 0.651158 2.45691C1.15801 1.80625 1.90871 1.45925 2.77752 1.38383L2.78556 1.38313ZM21.0573 2.31783C19.9185 1.48866 19.4523 1.38432 17.6404 1.54009L2.88562 2.62915C1.69587 2.73242 1.28125 3.51038 1.28125 4.44304V20.6185C1.28125 21.3453 1.5397 21.9664 2.1612 22.7966L5.62965 27.3071C6.19937 28.0334 6.71713 28.1888 7.80502 28.1368L24.9397 27.0997C26.3889 26.9965 26.8034 26.322 26.8034 25.1815V6.98368C26.8034 6.39414 26.5707 6.22383 25.8846 5.7218C25.8468 5.69417 25.8077 5.66555 25.7673 5.6358L21.0573 2.31783Z" fill="#040404"/>
<path d="M37.0389 20.3691V13.3373H37.1606L42.2304 20.3691H43.8273V10.0361H42.0514V17.0609H41.9297L36.8599 10.0361H35.2559V20.3691H37.0389Z" fill="#111111"/>
<path d="M48.8441 20.5267C51.1857 20.5267 52.6107 18.9943 52.6107 16.4522C52.6107 13.9173 51.1785 12.3777 48.8441 12.3777C46.5168 12.3777 45.0776 13.9244 45.0776 16.4522C45.0776 18.9943 46.4954 20.5267 48.8441 20.5267ZM48.8441 19.0372C47.6053 19.0372 46.8964 18.092 46.8964 16.4522C46.8964 14.8195 47.6053 13.8672 48.8441 13.8672C50.0757 13.8672 50.7847 14.8195 50.7847 16.4522C50.7847 18.092 50.0829 19.0372 48.8441 19.0372Z" fill="#111111"/>
<path d="M54.2333 10.6162V12.5854H52.9945V14.0032H54.2333V18.2782C54.2333 19.7963 54.9494 20.405 56.7468 20.405C57.0904 20.405 57.4198 20.3691 57.6777 20.319V18.9298C57.4628 18.9513 57.3268 18.9656 57.0761 18.9656C56.3314 18.9656 56.002 18.622 56.002 17.8485V14.0032H57.6777V12.5854H56.002V10.6162H54.2333Z" fill="#111111"/>
<path d="M58.7418 20.3691H60.5104V12.5353H58.7418V20.3691ZM59.6225 11.2392C60.2097 11.2392 60.6823 10.7666 60.6823 10.1722C60.6823 9.57789 60.2097 9.09814 59.6225 9.09814C59.0425 9.09814 58.5627 9.57789 58.5627 10.1722C58.5627 10.7666 59.0425 11.2392 59.6225 11.2392Z" fill="#111111"/>
<path d="M65.3626 20.5267C67.7041 20.5267 69.1291 18.9943 69.1291 16.4522C69.1291 13.9173 67.697 12.3777 65.3626 12.3777C63.0353 12.3777 61.596 13.9244 61.596 16.4522C61.596 18.9943 63.0138 20.5267 65.3626 20.5267ZM65.3626 19.0372C64.1238 19.0372 63.4148 18.092 63.4148 16.4522C63.4148 14.8195 64.1238 13.8672 65.3626 13.8672C66.5942 13.8672 67.3031 14.8195 67.3031 16.4522C67.3031 18.092 66.6013 19.0372 65.3626 19.0372Z" fill="#111111"/>
<path d="M70.1861 20.3691H71.9619V15.8077C71.9619 14.6549 72.6278 13.9244 73.6877 13.9244C74.7689 13.9244 75.2702 14.5259 75.2702 15.7218V20.3691H77.0461V15.2993C77.0461 13.4304 76.0937 12.3777 74.3464 12.3777C73.1793 12.3777 72.3916 12.9148 72.0192 13.7884H71.8975V12.5353H70.1861V20.3691Z" fill="#111111"/>
</svg>
