<svg width="26" height="27" viewBox="0 0 26 27" fill="none" xmlns="http://www.w3.org/2000/svg">
<path fill-rule="evenodd" clip-rule="evenodd" d="M16.6404 0.227564L1.88562 1.31662C0.695867 1.4199 0.28125 2.19786 0.28125 3.13051V19.306C0.28125 20.0327 0.5397 20.6538 1.1612 21.4841L4.62965 25.9946C5.19937 26.7208 5.71713 26.8762 6.80502 26.8242L23.9397 25.7872C25.3889 25.684 25.8034 25.0095 25.8034 23.869V5.67116C25.8034 5.08161 25.5707 4.91131 24.8846 4.40927C24.8468 4.38165 24.8077 4.35302 24.7673 4.32327L20.0573 1.00531C18.9185 0.176139 18.4523 0.071797 16.6404 0.227564ZM7.1935 5.37281C5.79456 5.46749 5.47669 5.48901 4.68225 4.84213L2.662 3.23499C2.45595 3.02716 2.5593 2.76792 3.07661 2.7165L17.2617 1.6795C18.4521 1.57559 19.0732 1.99102 19.5393 2.35376L21.9723 4.11666C22.0759 4.16829 22.3343 4.47896 22.0236 4.47896L7.37408 5.36064L7.1935 5.37281ZM5.56177 23.7132V8.26391C5.56177 7.59 5.76887 7.27875 6.38973 7.22641L23.2142 6.24173C23.7847 6.18989 24.0432 6.55305 24.0432 7.22641V22.5721C24.0432 23.2466 23.9394 23.8177 23.0072 23.869L6.90747 24.8027C5.97575 24.8541 5.56177 24.5435 5.56177 23.7132ZM21.4554 9.09275C21.5587 9.55983 21.4554 10.0265 20.9886 10.0789L20.2128 10.2338V21.6395C19.5393 22.0023 18.9182 22.2097 18.4007 22.2097C17.5722 22.2097 17.3647 21.9503 16.744 21.1731L11.6699 13.1891V20.9138L13.2755 21.277C13.2755 21.277 13.2755 22.2097 11.9801 22.2097L8.40892 22.4174C8.30517 22.2097 8.40892 21.6917 8.77117 21.5879L9.70308 21.3291V11.1155L8.40917 11.0116C8.30542 10.5445 8.56383 9.87108 9.28917 9.81883L13.1202 9.56L18.4007 17.648V10.4931L17.0544 10.3382C16.9511 9.76725 17.3647 9.35258 17.8824 9.30116L21.4554 9.09275Z" fill="black"/>
</svg>
