<svg width="180" height="31" viewBox="0 0 180 31" fill="none" xmlns="http://www.w3.org/2000/svg">
<g clip-path="url(#clip0_1_1092)">
<path d="M31.4965 10.204C30.778 10.5277 30.0034 10.7431 29.1944 10.8391C30.0229 10.3394 30.6571 9.54686 30.9589 8.60417C30.1842 9.06567 29.324 9.40411 28.4124 9.58502C27.6793 8.79985 26.637 8.3125 25.4835 8.3125C23.2682 8.3125 21.4744 10.1204 21.4744 12.3503C21.4744 12.6654 21.5086 12.9731 21.577 13.2697C18.2436 13.0998 15.2878 11.4926 13.3095 9.04721C12.9662 9.64286 12.767 10.3394 12.767 11.0778C12.767 12.4783 13.4733 13.7164 14.5498 14.4388C13.8924 14.4191 13.2741 14.2345 12.7316 13.9355V13.9859C12.7316 15.9439 14.1135 17.5783 15.9501 17.9474C15.6141 18.0398 15.2585 18.0902 14.8919 18.0902C14.6329 18.0902 14.3836 18.0632 14.1355 18.0176C14.6475 19.6212 16.1285 20.7903 17.8819 20.8248C16.5073 21.909 14.7807 22.5551 12.899 22.5551C12.5739 22.5551 12.2575 22.5354 11.941 22.4973C13.7201 23.6467 15.8279 24.3125 18.0921 24.3125C25.4688 24.3125 29.506 18.1554 29.506 12.8168C29.506 12.6395 29.5024 12.4673 29.495 12.2937C30.2783 11.7289 30.9577 11.0163 31.4953 10.2053L31.4965 10.204Z" fill="black" fill-opacity="0.6"/>
</g>
<g clip-path="url(#clip1_1_1092)">
<path fill-rule="evenodd" clip-rule="evenodd" d="M50.7957 10.4663C51.9421 10.4663 52.8725 9.53584 52.8725 8.3894C52.8725 7.24295 51.9421 6.3125 50.7957 6.3125C49.6492 6.3125 48.7188 7.24295 48.7188 8.3894C48.7188 9.53584 49.6492 10.4663 50.7957 10.4663ZM48.7188 24.3125V11.8511H52.8725V24.3125H48.7188ZM55.6425 11.8511H59.4736V13.8144H59.529C60.062 12.8577 61.3664 11.8511 63.3118 11.8511C67.3562 11.8511 68.1038 14.3683 68.1038 17.6428V24.3125H64.1093V18.4002C64.1093 16.9907 64.0801 15.1755 62.0323 15.1755C59.9527 15.1755 59.6342 16.711 59.6342 18.2978V24.3125H55.6425V11.8511Z" fill="black" fill-opacity="0.6"/>
</g>
<g clip-path="url(#clip2_1_1092)">
<path d="M103.718 15.3115C103.718 10.3415 99.6887 6.3125 94.7187 6.3125C89.7487 6.3125 85.7197 10.3415 85.7197 15.3115C85.7197 19.8035 89.0107 23.5265 93.3127 24.2015V17.9125H91.0277V15.3115H93.3127V13.3285C93.3127 11.0735 94.6567 9.8275 96.7117 9.8275C97.6967 9.8275 98.7267 10.0035 98.7267 10.0035V12.2185H97.5917C96.4737 12.2185 96.1247 12.9125 96.1247 13.6235V15.3115H98.6207L98.2217 17.9125H96.1247V24.2015C100.427 23.5265 103.718 19.8035 103.718 15.3115Z" fill="black" fill-opacity="0.6"/>
</g>
<g clip-path="url(#clip3_1_1092)">
<path fill-rule="evenodd" clip-rule="evenodd" d="M129.719 7.9335C132.124 7.9335 132.408 7.9445 133.354 7.9865C134.233 8.0255 134.708 8.1725 135.024 8.2955C135.442 8.4575 135.745 8.6545 136.058 8.9665C136.374 9.2825 136.568 9.5815 136.733 10.0005C136.856 10.3165 137.004 10.7955 137.042 11.6705C137.084 12.6195 137.095 12.9045 137.095 15.3055C137.095 17.7065 137.084 17.9945 137.042 18.9405C137.003 19.8195 136.856 20.2945 136.733 20.6105C136.589 21.0007 136.359 21.3539 136.062 21.6445C135.746 21.9605 135.447 22.1545 135.028 22.3195C134.712 22.4425 134.233 22.5905 133.358 22.6285C132.409 22.6705 132.124 22.6815 129.723 22.6815C127.322 22.6815 127.034 22.6705 126.088 22.6285C125.209 22.5895 124.734 22.4425 124.418 22.3195C124.028 22.1754 123.674 21.9461 123.384 21.6485C123.085 21.358 122.854 21.0049 122.709 20.6145C122.586 20.2985 122.438 19.8195 122.4 18.9445C122.358 17.9955 122.347 17.7105 122.347 15.3095C122.347 12.9085 122.358 12.6205 122.4 11.6745C122.439 10.7955 122.586 10.3205 122.709 10.0045C122.871 9.5865 123.068 9.2835 123.38 8.9705C123.696 8.6545 123.995 8.4605 124.414 8.2955C124.73 8.1725 125.209 8.0245 126.084 7.9865C127.03 7.9445 127.314 7.9335 129.719 7.9335ZM129.719 6.3125C127.276 6.3125 126.97 6.3235 126.01 6.3655C125.054 6.4075 124.396 6.5625 123.827 6.7835C123.225 7.00944 122.68 7.36481 122.231 7.8245C121.772 8.27329 121.417 8.81698 121.19 9.4175C120.969 9.9905 120.814 10.6445 120.772 11.6005C120.73 12.5635 120.719 12.8695 120.719 15.3125C120.719 17.7555 120.73 18.0615 120.772 19.0215C120.814 19.9775 120.969 20.6355 121.19 21.2045C121.416 21.8063 121.771 22.3512 122.231 22.8005C122.68 23.2583 123.223 23.6123 123.824 23.8375C124.397 24.0585 125.051 24.2135 126.007 24.2555C126.967 24.2975 127.273 24.3085 129.716 24.3085C132.159 24.3085 132.465 24.2975 133.425 24.2555C134.381 24.2135 135.039 24.0585 135.608 23.8375C136.208 23.6117 136.751 23.2578 137.201 22.8005C137.701 22.3015 138.01 21.7985 138.238 21.2075C138.459 20.6345 138.614 19.9805 138.656 19.0245C138.698 18.0645 138.709 17.7585 138.709 15.3155C138.709 12.8725 138.698 12.5665 138.656 11.6065C138.614 10.6505 138.459 9.9925 138.238 9.4235C138.021 8.81855 137.669 8.27124 137.208 7.8235C136.759 7.3657 136.215 7.01174 135.615 6.7865C135.042 6.5655 134.388 6.4105 133.432 6.3685C132.469 6.3225 132.163 6.3125 129.719 6.3125ZM129.719 10.6895C128.493 10.69 127.317 11.1773 126.45 12.0441C125.584 12.911 125.096 14.0866 125.096 15.3125C125.096 16.5384 125.584 17.714 126.45 18.5809C127.317 19.4477 128.493 19.935 129.719 19.9355C130.945 19.935 132.12 19.4477 132.987 18.5809C133.854 17.714 134.341 16.5384 134.342 15.3125C134.341 14.0866 133.854 12.911 132.987 12.0441C132.12 11.1773 130.945 10.69 129.719 10.6895ZM129.719 18.3115C129.32 18.3188 128.924 18.2466 128.554 18.0991C128.184 17.9516 127.847 17.7318 127.562 17.4526C127.278 17.1733 127.052 16.8402 126.898 16.4727C126.743 16.1052 126.664 15.7106 126.664 15.312C126.664 14.9134 126.743 14.5188 126.898 14.1513C127.052 13.7838 127.278 13.4507 127.562 13.1714C127.847 12.8922 128.184 12.6724 128.554 12.5249C128.924 12.3774 129.32 12.3052 129.719 12.3125C130.514 12.3125 131.277 12.6286 131.84 13.1912C132.403 13.7538 132.719 14.5169 132.719 15.3125C132.719 16.1081 132.403 16.8712 131.84 17.4338C131.277 17.9964 130.514 18.3125 129.719 18.3125V18.3115ZM134.525 11.5855C134.811 11.5855 135.085 11.4718 135.288 11.2695C135.49 11.0671 135.604 10.7927 135.604 10.5065C135.604 10.2203 135.49 9.94588 135.288 9.74353C135.085 9.54118 134.811 9.4275 134.525 9.4275C134.239 9.4275 133.964 9.54118 133.762 9.74353C133.559 9.94588 133.446 10.2203 133.446 10.5065C133.446 10.7927 133.559 11.0671 133.762 11.2695C133.964 11.4718 134.239 11.5855 134.525 11.5855Z" fill="black" fill-opacity="0.6"/>
</g>
<g clip-path="url(#clip4_1_1092)">
<path d="M164.719 8.38257C155.874 8.38257 155.719 9.16957 155.719 15.3126C155.719 21.4556 155.874 22.2426 164.719 22.2426C173.564 22.2426 173.719 21.4556 173.719 15.3126C173.719 9.16957 173.564 8.38257 164.719 8.38257ZM167.603 15.6136L163.562 17.4996C163.208 17.6636 162.918 17.4796 162.918 17.0896V13.5366C162.918 13.1466 163.208 12.9626 163.562 13.1266L167.603 15.0126C167.957 15.1786 167.957 15.4486 167.603 15.6136Z" fill="black" fill-opacity="0.6"/>
</g>
<defs>
<clipPath id="clip0_1_1092">
<rect width="20" height="16" fill="white" transform="translate(11.7188 8.3125)"/>
</clipPath>
<clipPath id="clip1_1_1092">
<rect width="20" height="18" fill="white" transform="translate(48.7188 6.3125)"/>
</clipPath>
<clipPath id="clip2_1_1092">
<rect width="18" height="18" fill="white" transform="translate(85.7188 6.3125)"/>
</clipPath>
<clipPath id="clip3_1_1092">
<rect width="18" height="18" fill="white" transform="translate(120.719 6.3125)"/>
</clipPath>
<clipPath id="clip4_1_1092">
<rect width="18" height="18" fill="white" transform="translate(155.719 6.3125)"/>
</clipPath>
</defs>
</svg>
